{
	"asset":{
		"generator":"Khronos glTF Blender I/O v3.5.30",
		"version":"2.0"
	},
	"scene":0,
	"scenes":[
		{
			"name":"Scene",
			"nodes":[
				0
			]
		}
	],
	"nodes":[
		{
			"mesh":0,
			"name":"Object_4"
		}
	],
	"materials":[
		{
			"alphaCutoff":0,
			"alphaMode":"MASK",
			"doubleSided":true,
			"emissiveTexture":{
				"index":0
			},
			"name":"Material.001",
			"occlusionTexture":{
				"index":1,
				"strength":0
			},
			"pbrMetallicRoughness":{
				"baseColorTexture":{
					"index":2
				},
				"metallicRoughnessTexture":{
					"index":1
				}
			}
		}
	],
	"meshes":[
		{
			"name":"Object_0",
			"primitives":[
				{
					"attributes":{
						"POSITION":0,
						"TEXCOORD_0":1,
						"NORMAL":2
					},
					"indices":3,
					"material":0
				}
			]
		}
	],
	"textures":[
		{
			"sampler":0,
			"source":0
		},
		{
			"sampler":0,
			"source":1
		},
		{
			"sampler":0,
			"source":2
		}
	],
	"images":[
		{
			"bufferView":4,
			"mimeType":"image/jpeg",
			"name":"Material_emissive"
		},
		{
			"bufferView":5,
			"mimeType":"image/png",
			"name":"Material_metallicRoughness"
		},
		{
			"bufferView":6,
			"mimeType":"image/png",
			"name":"Material_baseColor"
		}
	],
	"accessors":[
		{
			"bufferView":0,
			"componentType":5126,
			"count":86,
			"max":[
				1,
				2.7450361251831055,
				1.673064947128296
			],
			"min":[
				0.5646920204162598,
				-0.29865118861198425,
				-1
			],
			"type":"VEC3"
		},
		{
			"bufferView":1,
			"componentType":5126,
			"count":86,
			"type":"VEC2"
		},
		{
			"bufferView":2,
			"componentType":5126,
			"count":86,
			"type":"VEC3"
		},
		{
			"bufferView":3,
			"componentType":5123,
			"count":162,
			"type":"SCALAR"
		}
	],
	"bufferViews":[
		{
			"buffer":0,
			"byteLength":1032,
			"byteOffset":0,
			"target":34962
		},
		{
			"buffer":0,
			"byteLength":688,
			"byteOffset":1032,
			"target":34962
		},
		{
			"buffer":0,
			"byteLength":1032,
			"byteOffset":1720,
			"target":34962
		},
		{
			"buffer":0,
			"byteLength":324,
			"byteOffset":2752,
			"target":34963
		},
		{
			"buffer":0,
			"byteLength":196787,
			"byteOffset":3076
		},
		{
			"buffer":0,
			"byteLength":165415,
			"byteOffset":199864
		},
		{
			"buffer":0,
			"byteLength":601122,
			"byteOffset":365280
		}
	],
	"samplers":[
		{
			"magFilter":9729,
			"minFilter":9987
		}
	],
	"buffers":[
		{
			"byteLength":966404,
			"uri":"data:application/octet-stream;base64,"
		}
	]
}
