{
  "accessors": [
    {
      "bufferView": 2,
      "componentType": 5126,
      "count": 765,
      "max": [
        0.7154533863067627,
        -0.21002298593521118,
        0.04801822081208229
      ],
      "min": [
        -0.04272807016968727,
        -0.2599851191043854,
        -2.1153981685638428
      ],
      "type": "VEC3"
    },
    {
      "bufferView": 2,
      "byteOffset": 9180,
      "componentType": 5126,
      "count": 765,
      "max": [
        0.9926472306251526,
        0.9927237629890442,
        0.9926477074623108
      ],
      "min": [
        -0.9926478266716003,
        -0.9879206418991089,
        -0.992648184299469
      ],
      "type": "VEC3"
    },
    {
      "bufferView": 1,
      "componentType": 5126,
      "count": 765,
      "max": [
        1.0000001192092896,
        1.0000001192092896
      ],
      "min": [
        0.0,
        0.0
      ],
      "type": "VEC2"
    },
    {
      "bufferView": 0,
      "componentType": 5125,
      "count": 3600,
      "type": "SCALAR"
    },
    {
      "bufferView": 2,
      "byteOffset": 18360,
      "componentType": 5126,
      "count": 2745,
      "max": [
        0.3056207299232483,
        0.13821163773536682,
        0.9575393199920654
      ],
      "min": [
        -0.19929060339927673,
        -0.04178836941719055,
        -0.9575393199920654
      ],
      "type": "VEC3"
    },
    {
      "bufferView": 2,
      "byteOffset": 51300,
      "componentType": 5126,
      "count": 2745,
      "max": [
        0.997485876083374,
        0.997485876083374,
        0.9974859952926636
      ],
      "min": [
        -0.9974859356880188,
        -0.997485876083374,
        -0.9974860548973083
      ],
      "type": "VEC3"
    },
    {
      "bufferView": 1,
      "byteOffset": 6120,
      "componentType": 5126,
      "count": 2745,
      "max": [
        0.43137267231941223,
        0.125
      ],
      "min": [
        0.4313724935054779,
        0.083333320915699
      ],
      "type": "VEC2"
    },
    {
      "bufferView": 0,
      "byteOffset": 14400,
      "componentType": 5125,
      "count": 9282,
      "type": "SCALAR"
    },
    {
      "bufferView": 2,
      "byteOffset": 84240,
      "componentType": 5126,
      "count": 1846,
      "max": [
        0.3056207299232483,
        0.13821163773536682,
        0.9575393199920654
      ],
      "min": [
        -0.44999998807907104,
        -0.04178836941719055,
        -0.9575393199920654
      ],
      "type": "VEC3"
    },
    {
      "bufferView": 2,
      "byteOffset": 106392,
      "componentType": 5126,
      "count": 1846,
      "max": [
        0.997485876083374,
        0.997485876083374,
        0.9974860548973083
      ],
      "min": [
        -0.9974859952926636,
        -0.997485876083374,
        -0.9974860548973083
      ],
      "type": "VEC3"
    },
    {
      "bufferView": 1,
      "byteOffset": 28080,
      "componentType": 5126,
      "count": 1846,
      "max": [
        0.43137264251708984,
        0.125
      ],
      "min": [
        0.4313725233078003,
        0.083333320915699
      ],
      "type": "VEC2"
    },
    {
      "bufferView": 0,
      "byteOffset": 51528,
      "componentType": 5125,
      "count": 5826,
      "type": "SCALAR"
    },
    {
      "bufferView": 2,
      "byteOffset": 128544,
      "componentType": 5126,
      "count": 1404,
      "max": [
        0.483517050743103,
        0.5390939712524414,
        1.125
      ],
      "min": [
        -0.44999998807907104,
        -0.2109060138463974,
        -1.125
      ],
      "type": "VEC3"
    },
    {
      "bufferView": 2,
      "byteOffset": 145392,
      "componentType": 5126,
      "count": 1404,
      "max": [
        0.99946528673172,
        0.9998292922973633,
        1.0
      ],
      "min": [
        -0.9998303651809692,
        -1.0,
        -1.0
      ],
      "type": "VEC3"
    },
    {
      "bufferView": 1,
      "byteOffset": 42848,
      "componentType": 5126,
      "count": 1404,
      "max": [
        0.875,
        1.0
      ],
      "min": [
        0.125,
        0.0
      ],
      "type": "VEC2"
    },
    {
      "bufferView": 0,
      "byteOffset": 74832,
      "componentType": 5125,
      "count": 6636,
      "type": "SCALAR"
    }
  ],
  "asset": {
    "extras": {
      "author": "akshayrathi (https://sketchfab.com/akshayrathi)",
      "license": "CC-BY-4.0 (http://creativecommons.org/licenses/by/4.0/)",
      "source": "https://sketchfab.com/3d-models/sofa-918ad772f85546748ebf19362e6728bc",
      "title": "Sofa"
    },
    "generator": "Sketchfab-15.0.0",
    "version": "2.0"
  },
  "bufferViews": [
    {
      "buffer": 0,
      "byteLength": 101376,
      "name": "floatBufferViews",
      "target": 34963
    },
    {
      "buffer": 0,
      "byteLength": 54080,
      "byteOffset": 101376,
      "byteStride": 8,
      "name": "floatBufferViews",
      "target": 34962
    },
    {
      "buffer": 0,
      "byteLength": 162240,
      "byteOffset": 155456,
      "byteStride": 12,
      "name": "floatBufferViews",
      "target": 34962
    }
  ],
  "buffers": [
    {
      "byteLength": 317696,
      "uri": "scene.bin"
    }
  ],
  "materials": [
    {
      "doubleSided": true,
      "name": "Black_Finish_shiny",
      "pbrMetallicRoughness": {
        "baseColorFactor": [
          0.0,
          0.0,
          0.0,
          1.0
        ],
        "metallicFactor": 0.0,
        "roughnessFactor": 0.0
      }
    },
    {
      "doubleSided": true,
      "name": "Couch",
      "pbrMetallicRoughness": {
        "baseColorFactor": [
          0.0,
          0.0,
          0.0,
          1.0
        ],
        "metallicFactor": 0.0,
        "roughnessFactor": 0.5
      }
    }
  ],
  "meshes": [
    {
      "name": "Object_0",
      "primitives": [
        {
          "attributes": {
            "NORMAL": 1,
            "POSITION": 0,
            "TEXCOORD_0": 2
          },
          "indices": 3,
          "material": 0,
          "mode": 4
        }
      ]
    },
    {
      "name": "Object_1",
      "primitives": [
        {
          "attributes": {
            "NORMAL": 5,
            "POSITION": 4,
            "TEXCOORD_0": 6
          },
          "indices": 7,
          "material": 1,
          "mode": 4
        }
      ]
    },
    {
      "name": "Object_2",
      "primitives": [
        {
          "attributes": {
            "NORMAL": 9,
            "POSITION": 8,
            "TEXCOORD_0": 10
          },
          "indices": 11,
          "material": 1,
          "mode": 4
        }
      ]
    },
    {
      "name": "Object_3",
      "primitives": [
        {
          "attributes": {
            "NORMAL": 13,
            "POSITION": 12,
            "TEXCOORD_0": 14
          },
          "indices": 15,
          "material": 1,
          "mode": 4
        }
      ]
    }
  ],
  "nodes": [
    {
      "children": [
        1
      ],
      "matrix": [
        1.0,
        0.0,
        0.0,
        0.0,
        0.0,
        2.220446049250313e-16,
        -1.0,
        0.0,
        0.0,
        1.0,
        2.220446049250313e-16,
        0.0,
        0.0,
        0.0,
        0.0,
        1.0
      ],
      "name": "Sketchfab_model"
    },
    {
      "children": [
        2
      ],
      "name": "root"
    },
    {
      "children": [
        3,
        5,
        7,
        9
      ],
      "matrix": [
        1.0,
        0.0,
        0.0,
        0.0,
        0.0,
        2.220446049250313e-16,
        1.0,
        0.0,
        0.0,
        -1.0,
        2.220446049250313e-16,
        0.0,
        0.0,
        0.0,
        0.0,
        1.0
      ],
      "name": "GLTF_SceneRootNode"
    },
    {
      "children": [
        4
      ],
      "matrix": [
        1.0,
        0.0,
        0.0,
        0.0,
        0.0,
        1.0,
        0.0,
        0.0,
        0.0,
        0.0,
        1.0,
        0.0,
        0.9804851412773132,
        0.28594908118247986,
        1.082690954208374,
        1.0
      ],
      "name": "Plane.004_2"
    },
    {
      "mesh": 0,
      "name": "Object_4"
    },
    {
      "children": [
        6
      ],
      "matrix": [
        0.08715579847029686,
        0.9961946932166449,
        0.0,
        0.0,
        -0.9961946932166449,
        0.08715579847029686,
        0.0,
        0.0,
        0.0,
        0.0,
        1.0,
        0.0,
        1.6413053274154663,
        0.6240572929382324,
        0.04999995231628418,
        1.0
      ],
      "name": "Cube.010_3"
    },
    {
      "mesh": 1,
      "name": "Object_6"
    },
    {
      "children": [
        8
      ],
      "matrix": [
        1.0,
        0.0,
        0.0,
        0.0,
        0.0,
        1.0,
        0.0,
        0.0,
        0.0,
        0.0,
        1.0,
        0.0,
        1.3467265367507935,
        0.28594908118247986,
        0.04999995231628418,
        1.0
      ],
      "name": "Cube.009_4"
    },
    {
      "mesh": 2,
      "name": "Object_8"
    },
    {
      "children": [
        10
      ],
      "matrix": [
        1.0,
        0.0,
        0.0,
        0.0,
        0.0,
        1.0,
        0.0,
        0.0,
        0.0,
        0.0,
        1.0,
        0.0,
        1.3467265367507935,
        0.28594908118247986,
        0.04999995231628418,
        1.0
      ],
      "name": "Cube.008_5"
    },
    {
      "mesh": 3,
      "name": "Object_10"
    }
  ],
  "scene": 0,
  "scenes": [
    {
      "name": "Sketchfab_Scene",
      "nodes": [
        0
      ]
    }
  ]
}
